<mxfile host="app.diagrams.net" modified="2023-11-14T02:08:17.948Z" agent="Mozilla/5.0 (Windows NT 10.0; Win64; x64) AppleWebKit/537.36 (KHTML, like Gecko) Chrome/119.0.0.0 Safari/537.36" etag="KykfREdjIltI5cbDQp7z" version="22.1.0" type="google">
  <diagram id="C5RBs43oDa-KdzZeNtuy" name="Page-1">
    <mxGraphModel grid="1" page="1" gridSize="10" guides="1" tooltips="1" connect="1" arrows="1" fold="1" pageScale="1" pageWidth="827" pageHeight="1169" math="0" shadow="0">
      <root>
        <mxCell id="WIyWlLk6GJQsqaUBKTNV-0" />
        <mxCell id="WIyWlLk6GJQsqaUBKTNV-1" parent="WIyWlLk6GJQsqaUBKTNV-0" />
        <mxCell id="_PlJlNOgrbJLre1Ri-jr-0" value="System" style="swimlane;whiteSpace=wrap;html=1;dashed=1;fontStyle=0" vertex="1" parent="WIyWlLk6GJQsqaUBKTNV-1">
          <mxGeometry x="-490" y="70" width="680" height="2200" as="geometry" />
        </mxCell>
        <mxCell id="_PlJlNOgrbJLre1Ri-jr-1" value="&lt;p class=&quot;MsoNormal&quot;&gt;Hệ thống sẽ hiện bảng điều khiển chung của &lt;span style=&quot;mso-spacerun:&#39;yes&#39;;font-family:Calibri;mso-bidi-font-family:&#39;Times New Roman&#39;;&lt;br/&gt;font-size:11.0000pt;mso-font-kerning:1.0000pt;&quot;&gt;O&lt;/span&gt;&lt;span style=&quot;mso-spacerun:&#39;yes&#39;;font-family:Calibri;mso-bidi-font-family:&#39;Times New Roman&#39;;&lt;br/&gt;font-size:11.0000pt;mso-font-kerning:1.0000pt;&quot;&gt;doo&lt;/span&gt;&lt;/p&gt;" style="html=1;whiteSpace=wrap;" vertex="1" parent="_PlJlNOgrbJLre1Ri-jr-0">
          <mxGeometry x="245" y="130" width="190" height="40" as="geometry" />
        </mxCell>
        <mxCell id="_PlJlNOgrbJLre1Ri-jr-2" value="&lt;p class=&quot;MsoNormal&quot;&gt;Hệ thống hiển thị bảng điều khiển của kho.&lt;/p&gt;" style="html=1;whiteSpace=wrap;" vertex="1" parent="_PlJlNOgrbJLre1Ri-jr-0">
          <mxGeometry x="220" y="210" width="240" height="40" as="geometry" />
        </mxCell>
        <mxCell id="_PlJlNOgrbJLre1Ri-jr-3" value="&lt;p class=&quot;MsoNormal&quot;&gt;Hệ thống hiển thị giao diện chứa tất cả sản phẩm có đã được tạo trước đó.&lt;/p&gt;" style="html=1;whiteSpace=wrap;" vertex="1" parent="_PlJlNOgrbJLre1Ri-jr-0">
          <mxGeometry x="100" y="290" width="425" height="40" as="geometry" />
        </mxCell>
        <mxCell id="_PlJlNOgrbJLre1Ri-jr-4" value="&lt;p class=&quot;MsoNormal&quot;&gt;Hệ thống chuyển sang trang mới của giao diện số lượng.&lt;/p&gt;" style="html=1;whiteSpace=wrap;" vertex="1" parent="_PlJlNOgrbJLre1Ri-jr-0">
          <mxGeometry x="82.5" y="460" width="460" height="40" as="geometry" />
        </mxCell>
        <mxCell id="_PlJlNOgrbJLre1Ri-jr-5" value="&lt;p class=&quot;MsoNormal&quot;&gt;Hệ thống thực hiện kiểm tra thông tin actor điền vào các trường dữ liệu.&lt;/p&gt;" style="html=1;whiteSpace=wrap;" vertex="1" parent="_PlJlNOgrbJLre1Ri-jr-0">
          <mxGeometry x="170" y="1690" width="435" height="40" as="geometry" />
        </mxCell>
        <mxCell id="_PlJlNOgrbJLre1Ri-jr-6" style="edgeStyle=orthogonalEdgeStyle;rounded=0;orthogonalLoop=1;jettySize=auto;html=1;" edge="1" parent="_PlJlNOgrbJLre1Ri-jr-0" target="_PlJlNOgrbJLre1Ri-jr-21">
          <mxGeometry relative="1" as="geometry">
            <mxPoint x="385.5" y="1730" as="sourcePoint" />
            <mxPoint x="1032.5" y="1790" as="targetPoint" />
            <Array as="points">
              <mxPoint x="385.5" y="1770" />
              <mxPoint x="1064.5" y="1770" />
            </Array>
          </mxGeometry>
        </mxCell>
        <mxCell id="_PlJlNOgrbJLre1Ri-jr-7" value="&lt;p class=&quot;MsoNormal&quot;&gt;thông báo lỗi và đánh dấu tại ô nhập liệu đó.&lt;b&gt;&lt;span style=&quot;mso-spacerun:&#39;yes&#39;;font-family:Calibri;mso-bidi-font-family:&#39;Times New Roman&#39;;&lt;br/&gt;mso-ansi-font-weight:bold;font-size:11.0000pt;mso-font-kerning:1.0000pt;&quot;&gt;&amp;nbsp;&lt;/span&gt;&lt;/b&gt;&lt;b&gt;&lt;span style=&quot;mso-spacerun:&#39;yes&#39;;font-family:Calibri;mso-bidi-font-family:&#39;Times New Roman&#39;;&lt;br/&gt;mso-ansi-font-weight:bold;font-size:11.0000pt;mso-font-kerning:1.0000pt;&quot;&gt;&lt;/span&gt;&lt;/b&gt;&lt;/p&gt;" style="html=1;whiteSpace=wrap;" vertex="1" parent="_PlJlNOgrbJLre1Ri-jr-0">
          <mxGeometry x="250" y="1900" width="270" height="40" as="geometry" />
        </mxCell>
        <mxCell id="_PlJlNOgrbJLre1Ri-jr-8" value="&lt;p class=&quot;MsoNormal&quot;&gt;hiển thị ra giao diện trống với thông báo “Không tồn tại sản phẩm nào. Hãy tạo một cái!”.&lt;/p&gt;" style="html=1;whiteSpace=wrap;" vertex="1" parent="_PlJlNOgrbJLre1Ri-jr-0">
          <mxGeometry x="240" y="2040" width="280" height="40" as="geometry" />
        </mxCell>
        <mxCell id="_PlJlNOgrbJLre1Ri-jr-9" value="&lt;p class=&quot;MsoNormal&quot;&gt;&amp;nbsp;Hệ thống hiển thị giao diệ&lt;span style=&quot;mso-spacerun:&#39;yes&#39;;font-family:Calibri;mso-bidi-font-family:&#39;Times New Roman&#39;;&lt;br/&gt;font-size:11.0000pt;mso-font-kerning:1.0000pt;&quot;&gt;n chi tiết các thông tin của sản phẩm.&lt;/span&gt;&lt;/p&gt;" style="html=1;whiteSpace=wrap;" vertex="1" parent="_PlJlNOgrbJLre1Ri-jr-0">
          <mxGeometry x="32.5" y="370" width="615" height="40" as="geometry" />
        </mxCell>
        <mxCell id="_PlJlNOgrbJLre1Ri-jr-51" value="&lt;p class=&quot;MsoNormal&quot;&gt;Hệ thống hiển thị tạo mới phiếu cập nhật số lượng với các trường thông tin như product, location,counted quantyti,..&amp;nbsp;&lt;/p&gt;" style="html=1;whiteSpace=wrap;" vertex="1" parent="_PlJlNOgrbJLre1Ri-jr-0">
          <mxGeometry x="50" y="550" width="613.44" height="40" as="geometry" />
        </mxCell>
        <mxCell id="_PlJlNOgrbJLre1Ri-jr-70" value="&lt;p class=&quot;MsoNormal&quot;&gt;Hệ thống sẽ tải và hiển thị thông báo đã tải về máy.&lt;/p&gt;" style="html=1;whiteSpace=wrap;" vertex="1" parent="_PlJlNOgrbJLre1Ri-jr-0">
          <mxGeometry x="80" y="850" width="460" height="40" as="geometry" />
        </mxCell>
        <mxCell id="_PlJlNOgrbJLre1Ri-jr-77" value="&lt;p class=&quot;MsoNormal&quot;&gt;Hệ thống sẽ hiển thị những lựa chọn để người dùng có thể in, cập nhật, hoặc hủy,…&lt;/p&gt;" style="html=1;whiteSpace=wrap;" vertex="1" parent="_PlJlNOgrbJLre1Ri-jr-0">
          <mxGeometry x="60" y="950" width="460" height="40" as="geometry" />
        </mxCell>
        <mxCell id="_PlJlNOgrbJLre1Ri-jr-81" value="&lt;p class=&quot;MsoNormal&quot;&gt;Hệ thống sẽ tải về máy file pdf ta đã chọn.&lt;/p&gt;" style="html=1;whiteSpace=wrap;" vertex="1" parent="_PlJlNOgrbJLre1Ri-jr-0">
          <mxGeometry x="50" y="1099" width="460" height="40" as="geometry" />
        </mxCell>
        <mxCell id="_PlJlNOgrbJLre1Ri-jr-80" style="edgeStyle=orthogonalEdgeStyle;rounded=0;orthogonalLoop=1;jettySize=auto;html=1;" edge="1" parent="_PlJlNOgrbJLre1Ri-jr-0" target="_PlJlNOgrbJLre1Ri-jr-81">
          <mxGeometry relative="1" as="geometry">
            <mxPoint x="510" y="1109" as="targetPoint" />
            <mxPoint x="990" y="1070" as="sourcePoint" />
            <Array as="points">
              <mxPoint x="990" y="1120" />
            </Array>
          </mxGeometry>
        </mxCell>
        <mxCell id="_PlJlNOgrbJLre1Ri-jr-89" value="&lt;p class=&quot;MsoNormal&quot;&gt;Hệ thống hiển thị 2 lựa chọn là export và set.&lt;/p&gt;" style="whiteSpace=wrap;html=1;" vertex="1" parent="_PlJlNOgrbJLre1Ri-jr-0">
          <mxGeometry x="60" y="1210" width="480" height="40" as="geometry" />
        </mxCell>
        <mxCell id="_PlJlNOgrbJLre1Ri-jr-95" value="&lt;p class=&quot;MsoNormal&quot;&gt;Hệ thống hiển thị một biểu mẫu chi tiết để in.&lt;/p&gt;" style="whiteSpace=wrap;html=1;" vertex="1" parent="_PlJlNOgrbJLre1Ri-jr-0">
          <mxGeometry x="90" y="1330" width="480" height="40" as="geometry" />
        </mxCell>
        <mxCell id="_PlJlNOgrbJLre1Ri-jr-102" value="&lt;p class=&quot;MsoNormal&quot;&gt;Hệ thống sẽ tải file về máy.&lt;/p&gt;" style="whiteSpace=wrap;html=1;" vertex="1" parent="_PlJlNOgrbJLre1Ri-jr-0">
          <mxGeometry x="256.72" y="1450" width="200" height="40" as="geometry" />
        </mxCell>
        <mxCell id="_PlJlNOgrbJLre1Ri-jr-10" value="Admin" style="swimlane;whiteSpace=wrap;html=1;dashed=1;fontStyle=0" vertex="1" parent="WIyWlLk6GJQsqaUBKTNV-1">
          <mxGeometry x="190" y="70" width="646.25" height="2200" as="geometry">
            <mxRectangle x="70" y="70" width="80" height="30" as="alternateBounds" />
          </mxGeometry>
        </mxCell>
        <mxCell id="_PlJlNOgrbJLre1Ri-jr-11" value="" style="ellipse;html=1;shape=startState;fillColor=#000000;strokeColor=#ff0000;" vertex="1" parent="_PlJlNOgrbJLre1Ri-jr-10">
          <mxGeometry x="320" y="50" width="30" height="30" as="geometry" />
        </mxCell>
        <mxCell id="_PlJlNOgrbJLre1Ri-jr-12" value="" style="edgeStyle=orthogonalEdgeStyle;html=1;verticalAlign=bottom;endArrow=open;endSize=8;strokeColor=#ff0000;rounded=0;entryX=0.5;entryY=0;entryDx=0;entryDy=0;" edge="1" parent="_PlJlNOgrbJLre1Ri-jr-10" source="_PlJlNOgrbJLre1Ri-jr-11">
          <mxGeometry relative="1" as="geometry">
            <mxPoint x="335" y="130" as="targetPoint" />
          </mxGeometry>
        </mxCell>
        <mxCell id="_PlJlNOgrbJLre1Ri-jr-13" value="" style="edgeStyle=orthogonalEdgeStyle;rounded=0;orthogonalLoop=1;jettySize=auto;html=1;" edge="1" parent="_PlJlNOgrbJLre1Ri-jr-10" source="_PlJlNOgrbJLre1Ri-jr-14" target="_PlJlNOgrbJLre1Ri-jr-16">
          <mxGeometry relative="1" as="geometry" />
        </mxCell>
        <mxCell id="_PlJlNOgrbJLre1Ri-jr-14" value="Login" style="html=1;whiteSpace=wrap;" vertex="1" parent="_PlJlNOgrbJLre1Ri-jr-10">
          <mxGeometry x="290" y="130" width="90" height="40" as="geometry" />
        </mxCell>
        <mxCell id="_PlJlNOgrbJLre1Ri-jr-15" value="" style="edgeStyle=orthogonalEdgeStyle;rounded=0;orthogonalLoop=1;jettySize=auto;html=1;" edge="1" parent="_PlJlNOgrbJLre1Ri-jr-10" source="_PlJlNOgrbJLre1Ri-jr-16" target="_PlJlNOgrbJLre1Ri-jr-18">
          <mxGeometry relative="1" as="geometry" />
        </mxCell>
        <mxCell id="_PlJlNOgrbJLre1Ri-jr-16" value="&lt;p class=&quot;MsoNormal&quot;&gt;Chọn &lt;b&gt;&lt;span style=&quot;font-size: 11pt;&quot;&gt;&amp;nbsp;&lt;/span&gt;&lt;/b&gt;&lt;b&gt;&lt;span style=&quot;font-size: 11pt;&quot;&gt;“&lt;/span&gt;&lt;/b&gt;Inventory”&lt;/p&gt;" style="html=1;whiteSpace=wrap;" vertex="1" parent="_PlJlNOgrbJLre1Ri-jr-10">
          <mxGeometry x="240" y="210" width="190" height="40" as="geometry" />
        </mxCell>
        <mxCell id="_PlJlNOgrbJLre1Ri-jr-17" value="" style="edgeStyle=orthogonalEdgeStyle;rounded=0;orthogonalLoop=1;jettySize=auto;html=1;" edge="1" parent="_PlJlNOgrbJLre1Ri-jr-10" source="_PlJlNOgrbJLre1Ri-jr-18" target="_PlJlNOgrbJLre1Ri-jr-20">
          <mxGeometry relative="1" as="geometry" />
        </mxCell>
        <mxCell id="_PlJlNOgrbJLre1Ri-jr-18" value="&lt;p class=&quot;MsoNormal&quot;&gt;Chọn “Products”&amp;nbsp;và nhấp chuột&amp;nbsp;vào&lt;b&gt;&lt;span style=&quot;font-size: 11pt;&quot;&gt;&amp;nbsp;&lt;/span&gt;&lt;/b&gt;“Products”&lt;/p&gt;" style="html=1;whiteSpace=wrap;" vertex="1" parent="_PlJlNOgrbJLre1Ri-jr-10">
          <mxGeometry x="197.5" y="290" width="275" height="40" as="geometry" />
        </mxCell>
        <mxCell id="_PlJlNOgrbJLre1Ri-jr-19" style="rounded=0;orthogonalLoop=1;jettySize=auto;html=1;entryX=0.5;entryY=0;entryDx=0;entryDy=0;" edge="1" parent="_PlJlNOgrbJLre1Ri-jr-10" source="_PlJlNOgrbJLre1Ri-jr-20" target="_PlJlNOgrbJLre1Ri-jr-33">
          <mxGeometry relative="1" as="geometry">
            <mxPoint x="336.80555555555566" y="455" as="targetPoint" />
          </mxGeometry>
        </mxCell>
        <mxCell id="_PlJlNOgrbJLre1Ri-jr-20" value="&lt;p class=&quot;MsoNormal&quot;&gt;&amp;nbsp;Chọn vào một sản phẩm đã có trước đó&lt;/p&gt;" style="html=1;whiteSpace=wrap;" vertex="1" parent="_PlJlNOgrbJLre1Ri-jr-10">
          <mxGeometry x="215" y="370" width="240" height="40" as="geometry" />
        </mxCell>
        <mxCell id="_PlJlNOgrbJLre1Ri-jr-21" value="" style="strokeWidth=2;html=1;shape=mxgraph.flowchart.decision;whiteSpace=wrap;" vertex="1" parent="_PlJlNOgrbJLre1Ri-jr-10">
          <mxGeometry x="340" y="1790" width="90" height="50" as="geometry" />
        </mxCell>
        <mxCell id="_PlJlNOgrbJLre1Ri-jr-22" value="Hợp lệ&amp;nbsp;" style="text;html=1;align=center;verticalAlign=middle;resizable=0;points=[];autosize=1;strokeColor=none;fillColor=none;" vertex="1" parent="_PlJlNOgrbJLre1Ri-jr-10">
          <mxGeometry x="397.26" y="1770" width="60" height="30" as="geometry" />
        </mxCell>
        <mxCell id="_PlJlNOgrbJLre1Ri-jr-23" value="&lt;p class=&quot;MsoNormal&quot;&gt;Hệ thống lưu vào CSDL&lt;/p&gt;" style="html=1;whiteSpace=wrap;" vertex="1" parent="_PlJlNOgrbJLre1Ri-jr-10">
          <mxGeometry x="255.26" y="1940" width="262" height="40" as="geometry" />
        </mxCell>
        <mxCell id="_PlJlNOgrbJLre1Ri-jr-24" value="" style="edgeStyle=orthogonalEdgeStyle;rounded=0;orthogonalLoop=1;jettySize=auto;html=1;entryX=0.5;entryY=0;entryDx=0;entryDy=0;" edge="1" parent="_PlJlNOgrbJLre1Ri-jr-10" target="_PlJlNOgrbJLre1Ri-jr-23">
          <mxGeometry relative="1" as="geometry">
            <mxPoint x="386.26" y="1890" as="targetPoint" />
            <Array as="points" />
            <mxPoint x="386.51" y="1840" as="sourcePoint" />
          </mxGeometry>
        </mxCell>
        <mxCell id="_PlJlNOgrbJLre1Ri-jr-25" value="Yes" style="edgeLabel;html=1;align=center;verticalAlign=middle;resizable=0;points=[];" connectable="0" vertex="1" parent="_PlJlNOgrbJLre1Ri-jr-24">
          <mxGeometry x="-0.24" y="4" relative="1" as="geometry">
            <mxPoint x="11" as="offset" />
          </mxGeometry>
        </mxCell>
        <mxCell id="_PlJlNOgrbJLre1Ri-jr-26" value="" style="strokeWidth=2;html=1;shape=mxgraph.flowchart.decision;whiteSpace=wrap;" vertex="1" parent="_PlJlNOgrbJLre1Ri-jr-10">
          <mxGeometry x="341.26" y="2035" width="90" height="50" as="geometry" />
        </mxCell>
        <mxCell id="_PlJlNOgrbJLre1Ri-jr-27" value="Sản phẩm có tồn tại trong CSDL ?" style="text;html=1;align=center;verticalAlign=middle;resizable=0;points=[];autosize=1;strokeColor=none;fillColor=none;" vertex="1" parent="_PlJlNOgrbJLre1Ri-jr-10">
          <mxGeometry x="175" y="2010" width="210" height="30" as="geometry" />
        </mxCell>
        <mxCell id="_PlJlNOgrbJLre1Ri-jr-28" style="edgeStyle=orthogonalEdgeStyle;rounded=0;orthogonalLoop=1;jettySize=auto;html=1;entryX=0.5;entryY=0;entryDx=0;entryDy=0;entryPerimeter=0;" edge="1" parent="_PlJlNOgrbJLre1Ri-jr-10" source="_PlJlNOgrbJLre1Ri-jr-23" target="_PlJlNOgrbJLre1Ri-jr-26">
          <mxGeometry relative="1" as="geometry" />
        </mxCell>
        <mxCell id="_PlJlNOgrbJLre1Ri-jr-29" value="" style="edgeStyle=orthogonalEdgeStyle;rounded=0;orthogonalLoop=1;jettySize=auto;html=1;" edge="1" parent="_PlJlNOgrbJLre1Ri-jr-10" target="_PlJlNOgrbJLre1Ri-jr-31">
          <mxGeometry relative="1" as="geometry">
            <mxPoint x="385.25" y="2085" as="sourcePoint" />
          </mxGeometry>
        </mxCell>
        <mxCell id="_PlJlNOgrbJLre1Ri-jr-30" value="Yes" style="edgeLabel;html=1;align=center;verticalAlign=middle;resizable=0;points=[];" connectable="0" vertex="1" parent="_PlJlNOgrbJLre1Ri-jr-29">
          <mxGeometry x="-0.2776" y="1" relative="1" as="geometry">
            <mxPoint x="13" y="-14" as="offset" />
          </mxGeometry>
        </mxCell>
        <mxCell id="_PlJlNOgrbJLre1Ri-jr-31" value="" style="ellipse;html=1;shape=endState;fillColor=#000000;strokeColor=#ff0000;direction=south;" vertex="1" parent="_PlJlNOgrbJLre1Ri-jr-10">
          <mxGeometry x="370" y="2135" width="30" height="30" as="geometry" />
        </mxCell>
        <mxCell id="_PlJlNOgrbJLre1Ri-jr-32" value="" style="edgeStyle=orthogonalEdgeStyle;rounded=0;orthogonalLoop=1;jettySize=auto;html=1;" edge="1" parent="_PlJlNOgrbJLre1Ri-jr-10" source="_PlJlNOgrbJLre1Ri-jr-33" target="_PlJlNOgrbJLre1Ri-jr-35">
          <mxGeometry relative="1" as="geometry" />
        </mxCell>
        <mxCell id="_PlJlNOgrbJLre1Ri-jr-33" value="&lt;p class=&quot;MsoNormal&quot;&gt;Uscase bắt đầu khi Actor chọn vào&lt;b&gt;&lt;span style=&quot;mso-spacerun:&#39;yes&#39;;font-family:Calibri;mso-bidi-font-family:&#39;Times New Roman&#39;;&lt;br/&gt;mso-ansi-font-weight:bold;mso-bidi-font-weight:normal;font-size:11.0000pt;&lt;br/&gt;mso-font-kerning:1.0000pt;&quot;&gt;&amp;nbsp;&lt;font face=&quot;Calibri&quot;&gt;“Update quantity”&lt;/font&gt;&lt;/span&gt;&lt;/b&gt;&lt;/p&gt;" style="html=1;whiteSpace=wrap;" vertex="1" parent="_PlJlNOgrbJLre1Ri-jr-10">
          <mxGeometry x="190" y="460" width="293.75" height="40" as="geometry" />
        </mxCell>
        <mxCell id="_PlJlNOgrbJLre1Ri-jr-54" value="" style="edgeStyle=orthogonalEdgeStyle;rounded=0;orthogonalLoop=1;jettySize=auto;html=1;" edge="1" parent="_PlJlNOgrbJLre1Ri-jr-10" source="_PlJlNOgrbJLre1Ri-jr-35" target="_PlJlNOgrbJLre1Ri-jr-53">
          <mxGeometry relative="1" as="geometry" />
        </mxCell>
        <mxCell id="_PlJlNOgrbJLre1Ri-jr-35" value="&lt;p class=&quot;MsoNormal&quot;&gt;chọn vào “New”&lt;/p&gt;" style="html=1;whiteSpace=wrap;" vertex="1" parent="_PlJlNOgrbJLre1Ri-jr-10">
          <mxGeometry x="171.87" y="550" width="330" height="40" as="geometry" />
        </mxCell>
        <mxCell id="_PlJlNOgrbJLre1Ri-jr-56" value="" style="edgeStyle=orthogonalEdgeStyle;rounded=0;orthogonalLoop=1;jettySize=auto;html=1;" edge="1" parent="_PlJlNOgrbJLre1Ri-jr-10" source="_PlJlNOgrbJLre1Ri-jr-53">
          <mxGeometry relative="1" as="geometry">
            <mxPoint x="335" y="730" as="targetPoint" />
          </mxGeometry>
        </mxCell>
        <mxCell id="_PlJlNOgrbJLre1Ri-jr-53" value="&lt;p class=&quot;MsoNormal&quot;&gt;Điền vào các thông tin cần cập nhật.&lt;/p&gt;" style="html=1;whiteSpace=wrap;" vertex="1" parent="_PlJlNOgrbJLre1Ri-jr-10">
          <mxGeometry x="170" y="630" width="330" height="40" as="geometry" />
        </mxCell>
        <mxCell id="_PlJlNOgrbJLre1Ri-jr-58" style="edgeStyle=orthogonalEdgeStyle;rounded=0;orthogonalLoop=1;jettySize=auto;html=1;entryX=0.5;entryY=0;entryDx=0;entryDy=0;entryPerimeter=0;" edge="1" parent="_PlJlNOgrbJLre1Ri-jr-10" target="_PlJlNOgrbJLre1Ri-jr-63">
          <mxGeometry relative="1" as="geometry">
            <mxPoint x="335" y="850" as="targetPoint" />
            <mxPoint x="330" y="770" as="sourcePoint" />
          </mxGeometry>
        </mxCell>
        <mxCell id="_PlJlNOgrbJLre1Ri-jr-74" value="" style="edgeStyle=orthogonalEdgeStyle;rounded=0;orthogonalLoop=1;jettySize=auto;html=1;" edge="1" parent="_PlJlNOgrbJLre1Ri-jr-10" source="_PlJlNOgrbJLre1Ri-jr-63" target="_PlJlNOgrbJLre1Ri-jr-73">
          <mxGeometry relative="1" as="geometry" />
        </mxCell>
        <mxCell id="_PlJlNOgrbJLre1Ri-jr-63" value="" style="rhombus;whiteSpace=wrap;html=1;" vertex="1" parent="_PlJlNOgrbJLre1Ri-jr-10">
          <mxGeometry x="290" y="820" width="80" height="80" as="geometry" />
        </mxCell>
        <mxCell id="_PlJlNOgrbJLre1Ri-jr-59" value="Export all?" style="text;html=1;align=center;verticalAlign=middle;resizable=0;points=[];autosize=1;strokeColor=none;fillColor=none;" vertex="1" parent="_PlJlNOgrbJLre1Ri-jr-10">
          <mxGeometry x="350" y="810" width="80" height="30" as="geometry" />
        </mxCell>
        <mxCell id="_PlJlNOgrbJLre1Ri-jr-71" value="&lt;p class=&quot;MsoNormal&quot;&gt;Chọn “Save”&lt;b&gt;&lt;span style=&quot;font-family: Calibri; font-size: 11pt;&quot;&gt;&amp;nbsp;&lt;/span&gt;&lt;/b&gt;&lt;/p&gt;" style="html=1;whiteSpace=wrap;" vertex="1" parent="_PlJlNOgrbJLre1Ri-jr-10">
          <mxGeometry x="203.13" y="730" width="240" height="40" as="geometry" />
        </mxCell>
        <mxCell id="_PlJlNOgrbJLre1Ri-jr-85" value="" style="edgeStyle=orthogonalEdgeStyle;rounded=0;orthogonalLoop=1;jettySize=auto;html=1;" edge="1" parent="_PlJlNOgrbJLre1Ri-jr-10" source="_PlJlNOgrbJLre1Ri-jr-73" target="_PlJlNOgrbJLre1Ri-jr-84">
          <mxGeometry relative="1" as="geometry">
            <Array as="points">
              <mxPoint x="510" y="970" />
              <mxPoint x="510" y="1230" />
            </Array>
          </mxGeometry>
        </mxCell>
        <mxCell id="_PlJlNOgrbJLre1Ri-jr-86" value="NO" style="edgeLabel;html=1;align=center;verticalAlign=middle;resizable=0;points=[];" connectable="0" vertex="1" parent="_PlJlNOgrbJLre1Ri-jr-85">
          <mxGeometry x="-0.8596" y="-4" relative="1" as="geometry">
            <mxPoint x="-30" y="-14" as="offset" />
          </mxGeometry>
        </mxCell>
        <mxCell id="_PlJlNOgrbJLre1Ri-jr-73" value="" style="rhombus;whiteSpace=wrap;html=1;" vertex="1" parent="_PlJlNOgrbJLre1Ri-jr-10">
          <mxGeometry x="290" y="930" width="80" height="80" as="geometry" />
        </mxCell>
        <mxCell id="_PlJlNOgrbJLre1Ri-jr-75" value="Chọn phiếu trước đó" style="text;html=1;align=center;verticalAlign=middle;resizable=0;points=[];autosize=1;strokeColor=none;fillColor=none;" vertex="1" parent="_PlJlNOgrbJLre1Ri-jr-10">
          <mxGeometry x="340" y="918" width="130" height="30" as="geometry" />
        </mxCell>
        <mxCell id="_PlJlNOgrbJLre1Ri-jr-79" value="&lt;p class=&quot;MsoNormal&quot;&gt;chọn “Print”&lt;/p&gt;" style="html=1;whiteSpace=wrap;" vertex="1" parent="_PlJlNOgrbJLre1Ri-jr-10">
          <mxGeometry x="190" y="1040" width="240" height="40" as="geometry" />
        </mxCell>
        <mxCell id="_PlJlNOgrbJLre1Ri-jr-84" value="" style="rhombus;whiteSpace=wrap;html=1;" vertex="1" parent="_PlJlNOgrbJLre1Ri-jr-10">
          <mxGeometry x="260" y="1190" width="80" height="80" as="geometry" />
        </mxCell>
        <mxCell id="_PlJlNOgrbJLre1Ri-jr-88" value="chọn Action" style="text;html=1;align=center;verticalAlign=middle;resizable=0;points=[];autosize=1;strokeColor=none;fillColor=none;" vertex="1" parent="_PlJlNOgrbJLre1Ri-jr-10">
          <mxGeometry x="315" y="1188" width="90" height="30" as="geometry" />
        </mxCell>
        <mxCell id="_PlJlNOgrbJLre1Ri-jr-92" value="&lt;p class=&quot;MsoNormal&quot;&gt;&amp;nbsp;chọn vào “export”&lt;/p&gt;" style="whiteSpace=wrap;html=1;" vertex="1" parent="_PlJlNOgrbJLre1Ri-jr-10">
          <mxGeometry x="197.5" y="1290" width="200" height="40" as="geometry" />
        </mxCell>
        <mxCell id="_PlJlNOgrbJLre1Ri-jr-100" value="" style="edgeStyle=orthogonalEdgeStyle;rounded=0;orthogonalLoop=1;jettySize=auto;html=1;" edge="1" parent="_PlJlNOgrbJLre1Ri-jr-10" source="_PlJlNOgrbJLre1Ri-jr-97" target="_PlJlNOgrbJLre1Ri-jr-99">
          <mxGeometry relative="1" as="geometry" />
        </mxCell>
        <mxCell id="_PlJlNOgrbJLre1Ri-jr-97" value="&lt;p class=&quot;MsoNormal&quot;&gt;điền vào các mục mong muốn.&lt;/p&gt;" style="whiteSpace=wrap;html=1;" vertex="1" parent="_PlJlNOgrbJLre1Ri-jr-10">
          <mxGeometry x="215" y="1380" width="200" height="40" as="geometry" />
        </mxCell>
        <mxCell id="_PlJlNOgrbJLre1Ri-jr-111" value="" style="edgeStyle=orthogonalEdgeStyle;rounded=0;orthogonalLoop=1;jettySize=auto;html=1;" edge="1" parent="_PlJlNOgrbJLre1Ri-jr-10" source="_PlJlNOgrbJLre1Ri-jr-99" target="_PlJlNOgrbJLre1Ri-jr-110">
          <mxGeometry relative="1" as="geometry" />
        </mxCell>
        <mxCell id="_PlJlNOgrbJLre1Ri-jr-99" value="&lt;p class=&quot;MsoNormal&quot;&gt;&amp;nbsp;chọn “export”&lt;/p&gt;" style="whiteSpace=wrap;html=1;" vertex="1" parent="_PlJlNOgrbJLre1Ri-jr-10">
          <mxGeometry x="215" y="1450" width="200" height="40" as="geometry" />
        </mxCell>
        <mxCell id="_PlJlNOgrbJLre1Ri-jr-110" value="" style="rhombus;whiteSpace=wrap;html=1;" vertex="1" parent="_PlJlNOgrbJLre1Ri-jr-10">
          <mxGeometry x="275" y="1550" width="80" height="80" as="geometry" />
        </mxCell>
        <mxCell id="_PlJlNOgrbJLre1Ri-jr-39" style="edgeStyle=orthogonalEdgeStyle;rounded=0;orthogonalLoop=1;jettySize=auto;html=1;entryX=1;entryY=0.5;entryDx=0;entryDy=0;" edge="1" parent="WIyWlLk6GJQsqaUBKTNV-1" source="_PlJlNOgrbJLre1Ri-jr-14" target="_PlJlNOgrbJLre1Ri-jr-1">
          <mxGeometry relative="1" as="geometry" />
        </mxCell>
        <mxCell id="_PlJlNOgrbJLre1Ri-jr-40" style="rounded=0;orthogonalLoop=1;jettySize=auto;html=1;entryX=1;entryY=0.5;entryDx=0;entryDy=0;" edge="1" parent="WIyWlLk6GJQsqaUBKTNV-1" source="_PlJlNOgrbJLre1Ri-jr-16" target="_PlJlNOgrbJLre1Ri-jr-2">
          <mxGeometry relative="1" as="geometry">
            <mxPoint x="10" y="320" as="targetPoint" />
          </mxGeometry>
        </mxCell>
        <mxCell id="_PlJlNOgrbJLre1Ri-jr-41" style="edgeStyle=orthogonalEdgeStyle;rounded=0;orthogonalLoop=1;jettySize=auto;html=1;entryX=1;entryY=0.5;entryDx=0;entryDy=0;" edge="1" parent="WIyWlLk6GJQsqaUBKTNV-1" source="_PlJlNOgrbJLre1Ri-jr-18" target="_PlJlNOgrbJLre1Ri-jr-3">
          <mxGeometry relative="1" as="geometry">
            <mxPoint x="160" y="380" as="targetPoint" />
          </mxGeometry>
        </mxCell>
        <mxCell id="_PlJlNOgrbJLre1Ri-jr-42" value="" style="edgeStyle=orthogonalEdgeStyle;rounded=0;orthogonalLoop=1;jettySize=auto;html=1;" edge="1" parent="WIyWlLk6GJQsqaUBKTNV-1" source="_PlJlNOgrbJLre1Ri-jr-21" target="_PlJlNOgrbJLre1Ri-jr-7">
          <mxGeometry relative="1" as="geometry" />
        </mxCell>
        <mxCell id="_PlJlNOgrbJLre1Ri-jr-43" value="NO" style="edgeLabel;html=1;align=center;verticalAlign=middle;resizable=0;points=[];" connectable="0" vertex="1" parent="_PlJlNOgrbJLre1Ri-jr-42">
          <mxGeometry x="-0.9207" y="2" relative="1" as="geometry">
            <mxPoint x="7" y="-17" as="offset" />
          </mxGeometry>
        </mxCell>
        <mxCell id="_PlJlNOgrbJLre1Ri-jr-44" style="edgeStyle=orthogonalEdgeStyle;rounded=0;orthogonalLoop=1;jettySize=auto;html=1;entryX=1;entryY=0.5;entryDx=0;entryDy=0;" edge="1" parent="WIyWlLk6GJQsqaUBKTNV-1" source="_PlJlNOgrbJLre1Ri-jr-26" target="_PlJlNOgrbJLre1Ri-jr-8">
          <mxGeometry relative="1" as="geometry">
            <mxPoint x="47.5" y="2130" as="targetPoint" />
            <Array as="points">
              <mxPoint x="407.5" y="2130" />
              <mxPoint x="407.5" y="2130" />
            </Array>
          </mxGeometry>
        </mxCell>
        <mxCell id="_PlJlNOgrbJLre1Ri-jr-45" value="No" style="edgeLabel;html=1;align=center;verticalAlign=middle;resizable=0;points=[];" connectable="0" vertex="1" parent="_PlJlNOgrbJLre1Ri-jr-44">
          <mxGeometry x="-0.4398" y="1" relative="1" as="geometry">
            <mxPoint x="126" y="-11" as="offset" />
          </mxGeometry>
        </mxCell>
        <mxCell id="_PlJlNOgrbJLre1Ri-jr-46" value="" style="edgeStyle=orthogonalEdgeStyle;rounded=0;orthogonalLoop=1;jettySize=auto;html=1;" edge="1" parent="WIyWlLk6GJQsqaUBKTNV-1" source="_PlJlNOgrbJLre1Ri-jr-20" target="_PlJlNOgrbJLre1Ri-jr-9">
          <mxGeometry relative="1" as="geometry" />
        </mxCell>
        <mxCell id="_PlJlNOgrbJLre1Ri-jr-47" style="edgeStyle=orthogonalEdgeStyle;rounded=0;orthogonalLoop=1;jettySize=auto;html=1;entryX=1;entryY=0.5;entryDx=0;entryDy=0;" edge="1" parent="WIyWlLk6GJQsqaUBKTNV-1" source="_PlJlNOgrbJLre1Ri-jr-33" target="_PlJlNOgrbJLre1Ri-jr-4">
          <mxGeometry relative="1" as="geometry">
            <Array as="points">
              <mxPoint x="63" y="550" />
            </Array>
          </mxGeometry>
        </mxCell>
        <mxCell id="_PlJlNOgrbJLre1Ri-jr-52" value="" style="edgeStyle=orthogonalEdgeStyle;rounded=0;orthogonalLoop=1;jettySize=auto;html=1;" edge="1" parent="WIyWlLk6GJQsqaUBKTNV-1" source="_PlJlNOgrbJLre1Ri-jr-35" target="_PlJlNOgrbJLre1Ri-jr-51">
          <mxGeometry relative="1" as="geometry" />
        </mxCell>
        <mxCell id="_PlJlNOgrbJLre1Ri-jr-69" style="edgeStyle=orthogonalEdgeStyle;rounded=0;orthogonalLoop=1;jettySize=auto;html=1;entryX=1;entryY=0.25;entryDx=0;entryDy=0;" edge="1" parent="WIyWlLk6GJQsqaUBKTNV-1" source="_PlJlNOgrbJLre1Ri-jr-63" target="_PlJlNOgrbJLre1Ri-jr-70">
          <mxGeometry relative="1" as="geometry">
            <mxPoint x="50" y="970" as="targetPoint" />
          </mxGeometry>
        </mxCell>
        <mxCell id="_PlJlNOgrbJLre1Ri-jr-72" value="yes" style="text;html=1;align=center;verticalAlign=middle;resizable=0;points=[];autosize=1;strokeColor=none;fillColor=none;" vertex="1" parent="WIyWlLk6GJQsqaUBKTNV-1">
          <mxGeometry x="390" y="908" width="40" height="30" as="geometry" />
        </mxCell>
        <mxCell id="_PlJlNOgrbJLre1Ri-jr-76" style="edgeStyle=orthogonalEdgeStyle;rounded=0;orthogonalLoop=1;jettySize=auto;html=1;" edge="1" parent="WIyWlLk6GJQsqaUBKTNV-1" source="_PlJlNOgrbJLre1Ri-jr-73" target="_PlJlNOgrbJLre1Ri-jr-77">
          <mxGeometry relative="1" as="geometry">
            <mxPoint x="30" y="1040" as="targetPoint" />
          </mxGeometry>
        </mxCell>
        <mxCell id="_PlJlNOgrbJLre1Ri-jr-82" value="Yes" style="edgeLabel;html=1;align=center;verticalAlign=middle;resizable=0;points=[];" connectable="0" vertex="1" parent="_PlJlNOgrbJLre1Ri-jr-76">
          <mxGeometry x="-0.8533" y="-3" relative="1" as="geometry">
            <mxPoint as="offset" />
          </mxGeometry>
        </mxCell>
        <mxCell id="_PlJlNOgrbJLre1Ri-jr-78" style="edgeStyle=orthogonalEdgeStyle;rounded=0;orthogonalLoop=1;jettySize=auto;html=1;entryX=0;entryY=0.5;entryDx=0;entryDy=0;" edge="1" parent="WIyWlLk6GJQsqaUBKTNV-1" source="_PlJlNOgrbJLre1Ri-jr-77" target="_PlJlNOgrbJLre1Ri-jr-79">
          <mxGeometry relative="1" as="geometry">
            <mxPoint x="380" y="1130" as="targetPoint" />
            <Array as="points">
              <mxPoint x="-200" y="1130" />
            </Array>
          </mxGeometry>
        </mxCell>
        <mxCell id="_PlJlNOgrbJLre1Ri-jr-87" value="No" style="text;html=1;align=center;verticalAlign=middle;resizable=0;points=[];autosize=1;strokeColor=none;fillColor=none;" vertex="1" parent="WIyWlLk6GJQsqaUBKTNV-1">
          <mxGeometry x="510" y="968" width="40" height="30" as="geometry" />
        </mxCell>
        <mxCell id="_PlJlNOgrbJLre1Ri-jr-90" value="" style="edgeStyle=orthogonalEdgeStyle;rounded=0;orthogonalLoop=1;jettySize=auto;html=1;" edge="1" parent="WIyWlLk6GJQsqaUBKTNV-1" source="_PlJlNOgrbJLre1Ri-jr-84" target="_PlJlNOgrbJLre1Ri-jr-89">
          <mxGeometry relative="1" as="geometry">
            <Array as="points">
              <mxPoint x="210" y="1300" />
              <mxPoint x="210" y="1300" />
            </Array>
          </mxGeometry>
        </mxCell>
        <mxCell id="_PlJlNOgrbJLre1Ri-jr-91" style="edgeStyle=orthogonalEdgeStyle;rounded=0;orthogonalLoop=1;jettySize=auto;html=1;" edge="1" parent="WIyWlLk6GJQsqaUBKTNV-1" source="_PlJlNOgrbJLre1Ri-jr-89" target="_PlJlNOgrbJLre1Ri-jr-92">
          <mxGeometry relative="1" as="geometry">
            <mxPoint x="560" y="1380" as="targetPoint" />
            <Array as="points">
              <mxPoint x="-190" y="1380" />
            </Array>
          </mxGeometry>
        </mxCell>
        <mxCell id="_PlJlNOgrbJLre1Ri-jr-94" style="edgeStyle=orthogonalEdgeStyle;rounded=0;orthogonalLoop=1;jettySize=auto;html=1;entryX=1;entryY=0.5;entryDx=0;entryDy=0;" edge="1" parent="WIyWlLk6GJQsqaUBKTNV-1" source="_PlJlNOgrbJLre1Ri-jr-92" target="_PlJlNOgrbJLre1Ri-jr-95">
          <mxGeometry relative="1" as="geometry">
            <mxPoint x="-150" y="1420" as="targetPoint" />
            <Array as="points">
              <mxPoint x="488" y="1420" />
            </Array>
          </mxGeometry>
        </mxCell>
        <mxCell id="_PlJlNOgrbJLre1Ri-jr-96" style="edgeStyle=orthogonalEdgeStyle;rounded=0;orthogonalLoop=1;jettySize=auto;html=1;exitX=0.5;exitY=1;exitDx=0;exitDy=0;entryX=0;entryY=0.25;entryDx=0;entryDy=0;" edge="1" parent="WIyWlLk6GJQsqaUBKTNV-1" source="_PlJlNOgrbJLre1Ri-jr-95" target="_PlJlNOgrbJLre1Ri-jr-97">
          <mxGeometry relative="1" as="geometry">
            <mxPoint x="420" y="1480" as="targetPoint" />
            <Array as="points">
              <mxPoint x="-160" y="1460" />
            </Array>
          </mxGeometry>
        </mxCell>
        <mxCell id="_PlJlNOgrbJLre1Ri-jr-103" value="" style="edgeStyle=orthogonalEdgeStyle;rounded=0;orthogonalLoop=1;jettySize=auto;html=1;" edge="1" parent="WIyWlLk6GJQsqaUBKTNV-1" source="_PlJlNOgrbJLre1Ri-jr-99" target="_PlJlNOgrbJLre1Ri-jr-102">
          <mxGeometry relative="1" as="geometry" />
        </mxCell>
        <mxCell id="_PlJlNOgrbJLre1Ri-jr-112" value="close?" style="text;html=1;align=center;verticalAlign=middle;resizable=0;points=[];autosize=1;strokeColor=none;fillColor=none;" vertex="1" parent="WIyWlLk6GJQsqaUBKTNV-1">
          <mxGeometry x="510" y="1608" width="60" height="30" as="geometry" />
        </mxCell>
        <mxCell id="_PlJlNOgrbJLre1Ri-jr-113" style="edgeStyle=orthogonalEdgeStyle;rounded=0;orthogonalLoop=1;jettySize=auto;html=1;exitX=0;exitY=0.5;exitDx=0;exitDy=0;entryX=0;entryY=0.5;entryDx=0;entryDy=0;" edge="1" parent="WIyWlLk6GJQsqaUBKTNV-1" source="_PlJlNOgrbJLre1Ri-jr-110" target="_PlJlNOgrbJLre1Ri-jr-4">
          <mxGeometry relative="1" as="geometry">
            <Array as="points">
              <mxPoint x="-460" y="1660" />
              <mxPoint x="-460" y="550" />
            </Array>
          </mxGeometry>
        </mxCell>
        <mxCell id="_PlJlNOgrbJLre1Ri-jr-114" value="Yes" style="edgeLabel;html=1;align=center;verticalAlign=middle;resizable=0;points=[];" connectable="0" vertex="1" parent="_PlJlNOgrbJLre1Ri-jr-113">
          <mxGeometry x="-0.9588" y="2" relative="1" as="geometry">
            <mxPoint x="18" y="-12" as="offset" />
          </mxGeometry>
        </mxCell>
        <mxCell id="_PlJlNOgrbJLre1Ri-jr-115" style="edgeStyle=orthogonalEdgeStyle;rounded=0;orthogonalLoop=1;jettySize=auto;html=1;exitX=0.5;exitY=1;exitDx=0;exitDy=0;entryX=0.5;entryY=0;entryDx=0;entryDy=0;" edge="1" parent="WIyWlLk6GJQsqaUBKTNV-1" source="_PlJlNOgrbJLre1Ri-jr-110" target="_PlJlNOgrbJLre1Ri-jr-5">
          <mxGeometry relative="1" as="geometry" />
        </mxCell>
        <mxCell id="_PlJlNOgrbJLre1Ri-jr-116" value="No" style="edgeLabel;html=1;align=center;verticalAlign=middle;resizable=0;points=[];" connectable="0" vertex="1" parent="_PlJlNOgrbJLre1Ri-jr-115">
          <mxGeometry x="-0.7783" y="2" relative="1" as="geometry">
            <mxPoint x="-11" y="-12" as="offset" />
          </mxGeometry>
        </mxCell>
      </root>
    </mxGraphModel>
  </diagram>
</mxfile>
